<svg width="23" height="20" viewBox="0 0 23 20" fill="none" xmlns="http://www.w3.org/2000/svg">
<path d="M20.1734 2.60999C19.6626 2.099 19.0562 1.69364 18.3887 1.41708C17.7213 1.14052 17.0059 0.998169 16.2834 0.998169C15.5609 0.998169 14.8455 1.14052 14.178 1.41708C13.5106 1.69364 12.9041 2.099 12.3934 2.60999L11.3334 3.66999L10.2734 2.60999C9.24168 1.5783 7.8424 0.998704 6.38337 0.998704C4.92434 0.998704 3.52506 1.5783 2.49337 2.60999C1.46168 3.64169 0.88208 5.04096 0.88208 6.49999C0.88208 7.95903 1.46168 9.3583 2.49337 10.39L3.55337 11.45L11.3334 19.23L19.1134 11.45L20.1734 10.39C20.6844 9.87924 21.0897 9.27281 21.3663 8.60535C21.6428 7.93789 21.7852 7.22248 21.7852 6.49999C21.7852 5.77751 21.6428 5.0621 21.3663 4.39464C21.0897 3.72718 20.6844 3.12075 20.1734 2.60999V2.60999Z" stroke="#979C9E" stroke-width="1.5" stroke-linecap="round" stroke-linejoin="round"/>
</svg>
